# xmcd
#
# Track frame offsets:
#	150
#	8000
#	21326
#	37079
#	54647
#	66743
#	76390
#	90784
#	104625
#	120984
#	139133
#	158205
#	180751
#
# Disc length: 2428 seconds
#
# Revision: 2
# Processed by: cddbd v1.5.2PL0 Copyright (c) Steve Scherf et al.
# Submitted via: EasyCDDAExtractor 12.0.4.1
#
DISCID=a3097a0d
DTITLE=Willie Nelson - Spirit
DYEAR=1996
DGENRE=Country
TTITLE0=Matador
TTITLE1=She Is Gone
TTITLE2=Your Memory Won't Die In My Grave
TTITLE3=I'm Not Trying To Forget You Anymore
TTITLE4=Too Sick To Pray
TTITLE5=Mariachi
TTITLE6=I'm Waiting Forever
TTITLE7=We Don't Run
TTITLE8=I Guess I've Come To Live Here In Your Eyes
TTITLE9=It's A Dream Come True
TTITLE10=I Thought About You, Lord
TTITLE11=Spirit Of E9
TTITLE12=Matador
EXTD=
EXTT0=
EXTT1=
EXTT2=
EXTT3=
EXTT4=
EXTT5=
EXTT6=
EXTT7=
EXTT8=
EXTT9=
EXTT10=
EXTT11=
EXTT12=
PLAYORDER=
